<svg width="14" height="14" viewBox="0 0 14 14" fill="none" xmlns="http://www.w3.org/2000/svg">
<path id="Vector" d="M12.8059 5.1314L8.83873 4.55484L7.06529 0.959527C7.01685 0.86109 6.93716 0.781402 6.83873 0.732965C6.59185 0.61109 6.29185 0.712652 6.16841 0.959527L4.39498 4.55484L0.427788 5.1314C0.318413 5.14703 0.218413 5.19859 0.141851 5.27671C0.0492908 5.37185 -0.00171392 5.49984 4.3978e-05 5.63256C0.00180188 5.76528 0.0561785 5.89188 0.151226 5.98453L3.02154 8.78296L2.34341 12.7345C2.32751 12.8264 2.33768 12.921 2.37278 13.0074C2.40787 13.0939 2.46648 13.1687 2.54196 13.2236C2.61744 13.2784 2.70677 13.3109 2.79982 13.3176C2.89287 13.3242 2.98592 13.3046 3.06841 13.2611L6.61685 11.3955L10.1653 13.2611C10.2622 13.3127 10.3747 13.3298 10.4825 13.3111C10.7544 13.2642 10.9372 13.0064 10.8903 12.7345L10.2122 8.78296L13.0825 5.98453C13.1606 5.90797 13.2122 5.80796 13.2278 5.69859C13.27 5.42515 13.0794 5.17203 12.8059 5.1314Z" fill="#FF8906"/>
</svg>
