<svg width="76" height="9" viewBox="0 0 76 9" fill="none" xmlns="http://www.w3.org/2000/svg">
<g id="Group 1300">
<circle id="Ellipse 172" cx="38" cy="4" r="4" fill="#DDE0E4"/>
<circle id="Ellipse 173" cx="55" cy="4" r="4" fill="#DDE0E4"/>
<circle id="Ellipse 174" cx="72" cy="4" r="4" fill="#DDE0E4"/>
<path id="Union" fill-rule="evenodd" clip-rule="evenodd" d="M4.25441 8.44432C4.24369 8.4444 4.23296 8.44444 4.22222 8.44444C4.21148 8.44444 4.20075 8.4444 4.19003 8.44432H3.91085V8.43314C1.72437 8.27376 0 6.44937 0 4.22222C0 1.99508 1.72437 0.170685 3.91085 0.0113071V0H4.22222H20.877V0.00638229C20.9545 0.0021459 21.0325 0 21.1111 0C23.443 0 25.3333 1.89035 25.3333 4.22222C25.3333 6.55409 23.443 8.44444 21.1111 8.44444C21.0325 8.44444 20.9545 8.4423 20.877 8.43806V8.44432H4.25441Z" fill="#FF8906"/>
</g>
</svg>
