<svg width="25" height="25" viewBox="0 0 25 25" fill="none" xmlns="http://www.w3.org/2000/svg">
<g id="ShoppingCart">
<path id="Vector" d="M18.25 17.85H6.67139C6.49574 17.85 6.32567 17.7883 6.19082 17.6758C6.05597 17.5632 5.9649 17.4069 5.93348 17.2341L3.43015 3.46581C3.39873 3.293 3.30766 3.1367 3.17281 3.02416C3.03796 2.91162 2.86789 2.84998 2.69225 2.84998H1" stroke="#FF8906" stroke-linecap="round" stroke-linejoin="round"/>
<path id="Vector_2" d="M7 21.6C8.03553 21.6 8.875 20.7605 8.875 19.725C8.875 18.6894 8.03553 17.85 7 17.85C5.96447 17.85 5.125 18.6894 5.125 19.725C5.125 20.7605 5.96447 21.6 7 21.6Z" stroke="#FF8906" stroke-linecap="round" stroke-linejoin="round"/>
<path id="Vector_3" d="M18.25 21.6C19.2855 21.6 20.125 20.7605 20.125 19.725C20.125 18.6894 19.2855 17.85 18.25 17.85C17.2145 17.85 16.375 18.6894 16.375 19.725C16.375 20.7605 17.2145 21.6 18.25 21.6Z" stroke="#FF8906" stroke-linecap="round" stroke-linejoin="round"/>
<path id="Vector_4" d="M4 6.59998H20.3513C20.4612 6.59998 20.5697 6.62411 20.6692 6.67067C20.7687 6.71722 20.8568 6.78507 20.9272 6.86941C20.9975 6.95375 21.0486 7.05253 21.0766 7.15875C21.1046 7.26498 21.1089 7.37606 21.0892 7.48414L19.862 14.2341C19.8306 14.4069 19.7395 14.5632 19.6046 14.6758C19.4698 14.7883 19.2997 14.85 19.1241 14.85H5.5" stroke="#FF8906" stroke-linecap="round" stroke-linejoin="round"/>
</g>
</svg>
